<?xml version="1.0" encoding="utf-8"?>
<!-- Generator: Adobe Illustrator 22.1.0, SVG Export Plug-In . SVG Version: 6.00 Build 0)  -->
<svg version="1.1" id="Calque_1" xmlns="http://www.w3.org/2000/svg" xmlns:xlink="http://www.w3.org/1999/xlink" x="0px" y="0px"
	 viewBox="0 0 828.1 308" style="enable-background:new 0 0 828.1 308;" xml:space="preserve">
<style type="text/css">
	.st0{enable-background:new    ;}
	.st1{fill:#F9B221;}
	.st2{fill:#E83B4D;}
</style>
<text transform="matrix(1 0 0 1 -907.1168 -337.9004)" style="font-family:'OleoScript-Regular'; font-size:60px;">IceRoll</text>
<text transform="matrix(1 0 0 1 -674.1168 -337.9004)" style="font-family:'OleoScript-Regular'; font-size:60px;">iceRoll</text>
<path d="M-891-202.8c0,0.9,0.2,1.3,0.7,1.3c0.2,0,1.4-0.5,3.5-1.6l1.1,2.2c-3.6,3.2-6.8,4.9-9.5,4.9c-1.7,0-3-0.6-3.9-1.7
	s-1.4-2.6-1.4-4.3s1-6.4,2.9-14.1c1.9-7.7,3-13,3.2-15.9c0-0.6-0.2-1.4-0.6-2.3c-0.4-0.9-0.9-1.6-1.3-2.2l-0.6-0.8l0.2-0.9
	c2.3-0.7,6-1,11.3-1c0.5,0.9,0.7,2.2,0.7,4c0,1.7-1,6.8-3.1,15.1C-890-211.9-891-206.1-891-202.8z"/>
<path d="M-868.5-220.3c-1.6,0-2.9,1.3-3.8,4c-1,2.7-1.4,5.5-1.4,8.5c0,4.8,1.5,7.2,4.4,7.2c1,0,2-0.2,3.1-0.7s1.9-0.9,2.6-1.4
	l0.9-0.7l1.4,1.9c-0.3,0.4-1,1-1.9,1.7c-1,0.7-1.9,1.3-2.7,1.8s-1.9,0.9-3.2,1.3c-1.3,0.4-2.6,0.6-3.9,0.6c-3.1,0-5.5-1-7-3.1
	s-2.3-4.8-2.3-8.2c0-4.8,1.3-8.6,3.9-11.6c2.6-3,6-4.4,10.1-4.4c2.7,0,4.8,0.6,6.4,1.8c1.6,1.2,2.4,2.7,2.4,4.5s-0.6,3.3-1.7,4.6
	c-1,0-2.2-0.2-3.5-0.7c-1.3-0.4-2.3-1-3-1.6l0.9-5.3C-867.3-220.2-867.8-220.3-868.5-220.3z"/>
<path d="M-858.7-207.1c0-5,1.5-8.9,4.5-11.9c3-2.9,6.5-4.4,10.3-4.4c2.4,0,4.3,0.6,5.8,1.7c1.5,1.2,2.3,2.7,2.3,4.6
	c0,1.9-0.5,3.6-1.5,4.9c-1,1.3-2.2,2.3-3.6,3.1c-2.8,1.4-5.4,2.3-7.8,2.6l-1.4,0.2c0.3,3.8,1.8,5.6,4.6,5.6c1,0,2-0.2,3.1-0.7
	s1.9-1,2.5-1.4l0.9-0.7l1.4,1.9c-0.3,0.4-1,1-1.9,1.7s-1.9,1.3-2.7,1.8c-2.3,1.3-4.9,1.9-7.6,1.9s-4.9-1-6.5-2.9
	C-857.9-200.9-858.7-203.6-858.7-207.1z M-845.2-211.7c1.2-1.4,1.8-3.1,1.8-5.3s-0.6-3.2-1.9-3.2c-1.5,0-2.7,1.3-3.5,3.9
	c-0.8,2.6-1.2,5-1.2,7.2C-848.1-209.4-846.4-210.3-845.2-211.7z"/>
<path d="M-788.1-196c-2.8,0-4.9-1-6.5-2.9s-2.3-4.6-2.3-8.1c0-4.4,1.2-8.3,3.6-11.5c2.4-3.2,5.7-4.8,9.9-4.8l2.2,0.1
	c0.7-0.4,1.4-0.5,2.3-0.5c3.2,0,4.7,3,4.7,8.9c1.6-0.1,3.3-0.3,5-0.7l1-0.2l0.4,2.3c-1.3,0.6-3.1,1.1-5.3,1.5l-1.2,0.2
	c-0.8,4.2-2.3,7.9-4.6,10.9C-781.5-197.6-784.5-196-788.1-196z M-784.9-201.2c1.7,0,3.2-1.1,4.5-3.2c1.3-2.2,2.3-4.4,2.8-6.8
	c-4.3,0-6.4-1.6-6.4-4.8c0-1.3,0.3-2.5,0.8-3.6l0.3-0.6c-0.2-0.1-0.4-0.1-0.6-0.1c-0.2,0-0.4,0-0.5,0.1c-1,0.6-1.9,2.1-2.8,4.5
	c-0.9,2.4-1.3,5.1-1.3,8.1C-788.2-203.3-787.1-201.2-784.9-201.2z"/>
<path d="M-767.3-196c-1.4,0-2.5-0.5-3.4-1.4s-1.3-2.2-1.3-3.9s1-7,3-15.9s3-15.4,3-19.3l-0.4-2.6c3.1-1.1,6-1.6,8.8-1.6
	c0.4,0.6,0.6,1.5,0.6,2.9c0,3.2-1,9.4-3,18.6c-2,9.2-3,14.5-3,16s0.2,2.2,0.5,2.2l4.2-1.5l1.1,2.1c-1.4,1.1-3,2.1-4.9,3
	C-764.3-196.5-765.9-196-767.3-196z"/>
<path d="M-751.4-196c-1.4,0-2.5-0.5-3.4-1.4s-1.3-2.2-1.3-3.9s1-7,3-15.9s3-15.4,3-19.3l-0.4-2.6c3.1-1.1,6-1.6,8.8-1.6
	c0.4,0.6,0.6,1.5,0.6,2.9c0,3.2-1,9.4-3,18.6c-2,9.2-3,14.5-3,16s0.2,2.2,0.5,2.2l4.2-1.5l1.1,2.1c-1.4,1.1-3,2.1-4.9,3
	C-748.3-196.5-750-196-751.4-196z"/>
<path d="M-810.1-217.4c2.2,7.5,4.2,12.3,5.8,14.5c0.7,0.9,1.3,1.4,1.7,1.4c0.7,0,1.8-0.4,3.4-1.1l0.7-0.4l1.4,2.2
	c-1.5,1.4-3.2,2.5-5.1,3.4c-1.9,0.9-3.8,1.3-5.5,1.3s-3.1-0.7-4.2-2.2c-1.1-1.5-2.1-3.6-3-6.4c-0.9-2.8-1.8-6.5-2.7-10.9
	c-1.3,0.1-2.3,0.1-2.9,0.1c-2,8.8-3.2,14.7-3.4,17.8c-1.7,0.8-4.4,1.3-8,1.3c-0.8,0-1.3,0-1.6-0.1c0.3-2.3,4.9-23.3,4.9-23.3
	l8.9,0.2h1.4c2.4,0,4.3-1.1,5.7-3.2"/>
<path d="M-891-281.6c0,0.9,0.2,1.3,0.7,1.3c0.2,0,1.4-0.5,3.5-1.6l1.1,2.2c-3.6,3.2-6.8,4.9-9.5,4.9c-1.7,0-3-0.6-3.9-1.7
	s-1.4-2.6-1.4-4.3c0-1.7,1-6.4,2.9-14.1s3-13,3.2-15.9c0-0.6-0.2-1.4-0.6-2.3c-0.4-0.9-0.9-1.6-1.3-2.2l-0.6-0.8l0.2-0.9
	c2.3-0.7,6-1,11.3-1c0.5,0.9,0.7,2.2,0.7,4c0,1.7-1,6.8-3.1,15.1C-890-290.7-891-284.9-891-281.6z"/>
<path d="M-868.5-299.1c-1.6,0-2.9,1.3-3.8,4c-1,2.7-1.4,5.5-1.4,8.5c0,4.8,1.5,7.2,4.4,7.2c1,0,2-0.2,3.1-0.7s1.9-0.9,2.6-1.4
	l0.9-0.7l1.4,1.9c-0.3,0.4-1,1-1.9,1.7c-1,0.7-1.9,1.3-2.7,1.8s-1.9,0.9-3.2,1.3s-2.6,0.6-3.9,0.6c-3.1,0-5.5-1-7-3.1
	s-2.3-4.8-2.3-8.2c0-4.8,1.3-8.6,3.9-11.6c2.6-3,6-4.4,10.1-4.4c2.7,0,4.8,0.6,6.4,1.8c1.6,1.2,2.4,2.7,2.4,4.5s-0.6,3.3-1.7,4.6
	c-1,0-2.2-0.2-3.5-0.7c-1.3-0.4-2.3-1-3-1.6l0.9-5.3C-867.3-298.9-867.8-299.1-868.5-299.1z"/>
<path d="M-858.7-285.9c0-5,1.5-8.9,4.5-11.9c3-2.9,6.5-4.4,10.3-4.4c2.4,0,4.3,0.6,5.8,1.7c1.5,1.2,2.3,2.7,2.3,4.6
	s-0.5,3.6-1.5,4.9s-2.2,2.3-3.6,3.1c-2.8,1.4-5.4,2.3-7.8,2.6l-1.4,0.2c0.3,3.8,1.8,5.6,4.6,5.6c1,0,2-0.2,3.1-0.7s1.9-1,2.5-1.4
	l0.9-0.7l1.4,1.9c-0.3,0.4-1,1-1.9,1.7s-1.9,1.3-2.7,1.8c-2.3,1.3-4.9,1.9-7.6,1.9s-4.9-1-6.5-2.9
	C-857.9-279.7-858.7-282.4-858.7-285.9z M-845.2-290.4c1.2-1.4,1.8-3.1,1.8-5.3c0-2.2-0.6-3.2-1.9-3.2c-1.5,0-2.7,1.3-3.5,3.9
	s-1.2,5-1.2,7.2C-848.1-288.2-846.4-289.1-845.2-290.4z"/>
<path d="M-788.1-274.8c-2.8,0-4.9-1-6.5-2.9s-2.3-4.6-2.3-8.1c0-4.4,1.2-8.3,3.6-11.5c2.4-3.2,5.7-4.8,9.9-4.8l2.2,0.1
	c0.7-0.4,1.4-0.5,2.3-0.5c3.2,0,4.7,3,4.7,8.9c1.6-0.1,3.3-0.3,5-0.7l1-0.2l0.4,2.3c-1.3,0.6-3.1,1.1-5.3,1.5l-1.2,0.2
	c-0.8,4.2-2.3,7.9-4.6,10.9C-781.5-276.3-784.5-274.8-788.1-274.8z M-784.9-279.9c1.7,0,3.2-1.1,4.5-3.2c1.3-2.2,2.3-4.4,2.8-6.8
	c-4.3,0-6.4-1.6-6.4-4.8c0-1.3,0.3-2.5,0.8-3.6l0.3-0.6c-0.2-0.1-0.4-0.1-0.6-0.1c-0.2,0-0.4,0-0.5,0.1c-1,0.6-1.9,2.1-2.8,4.5
	c-0.9,2.4-1.3,5.1-1.3,8.1C-788.2-282.1-787.1-279.9-784.9-279.9z"/>
<path d="M-767.3-274.8c-1.4,0-2.5-0.5-3.4-1.4s-1.3-2.2-1.3-3.9c0-1.7,1-7,3-15.9s3-15.4,3-19.3l-0.4-2.6c3.1-1.1,6-1.6,8.8-1.6
	c0.4,0.6,0.6,1.5,0.6,2.9c0,3.2-1,9.4-3,18.6s-3,14.5-3,16s0.2,2.2,0.5,2.2l4.2-1.5l1.1,2.1c-1.4,1.1-3,2.1-4.9,3
	C-764.3-275.2-765.9-274.8-767.3-274.8z"/>
<path d="M-751.4-274.8c-1.4,0-2.5-0.5-3.4-1.4s-1.3-2.2-1.3-3.9c0-1.7,1-7,3-15.9s3-15.4,3-19.3l-0.4-2.6c3.1-1.1,6-1.6,8.8-1.6
	c0.4,0.6,0.6,1.5,0.6,2.9c0,3.2-1,9.4-3,18.6s-3,14.5-3,16s0.2,2.2,0.5,2.2l4.2-1.5l1.1,2.1c-1.4,1.1-3,2.1-4.9,3
	C-748.3-275.2-750-274.8-751.4-274.8z"/>
<path d="M-817.4-317.7c0.5-0.1,5.4,3.8,5.9,4.7c0.6,1,0.8,2.2,0.8,3.8c0,3-0.7,5.5-2.1,7.7c-1.4,2.1-3.3,3.2-5.7,3.2h-1.4l-8.9-0.2
	c0,0-4.7,20.9-4.9,23.3c0.3,0,0.8,0.1,1.6,0.1c3.6,0,6.3-0.4,8-1.3c0.2-3.1,1.3-9,3.4-17.8c0.7,0,1.7,0,2.9-0.1
	c0.9,4.4,1.8,8.1,2.7,10.9s1.9,5,3,6.4c1.1,1.5,2.5,2.2,4.2,2.2s3.5-0.4,5.5-1.3c1.9-0.9,3.6-2,5.1-3.4l-1.4-2.2l-0.7,0.4
	c-1.5,0.7-2.6,1.1-3.4,1.1c-0.4,0-1-0.5-1.7-1.4c-1.6-2.2-3.5-7-5.8-14.5c3-1.3,5.2-3.1,6.6-5.5c1.4-2.3,2.1-4.9,2.1-7.8
	c0-5.8-5.3-11.5-12.7-11.5"/>
<g>
	<path d="M-834.1-218.2c4.8,2.2,9.8,2.4,14.1,1.1c4.3-1.3,7.8-4.2,9.8-7.7c1-1.7,1.4-3.6,1.6-5.5c0-0.9,0-1.9-0.2-2.9
		c0-0.5-0.2-0.9-0.3-1.4c-0.2-0.4-0.3-0.9-0.5-1.4c-0.7-1.8-1.9-3.5-3.5-4.7c-1.5-1.2-3.3-1.8-5.3-1.8c-1.9,0-3.9,0.6-5.5,1.8
		c-0.8,0.6-1.6,1.3-2.1,2.1s-0.9,1.7-1.1,2.6c-0.4,1.9,0,3.9,1.1,5.6c1.2,1.7,2.8,2.8,4.8,2.9c2,0.2,4-0.8,5.2-2.5
		c1.2-1.6,1.2-4-0.1-5.7c-0.6-0.9-1.5-1.5-2.5-1.7s-2.1,0-3.1,0.5c-0.9,0.6-1.6,1.5-1.8,2.6c-0.1,1.1,0.3,2.3,1.2,3.1
		c0.2,0.1,0.2,0.4,0,0.6c-0.1,0.2-0.4,0.2-0.5,0.1c-1.2-0.8-2-2.2-2-3.8c0-0.8,0.2-1.5,0.5-2.2c0.4-0.7,0.9-1.3,1.5-1.7
		c1.2-1,2.8-1.4,4.4-1.2c0.8,0.1,1.6,0.3,2.3,0.7s1.3,0.9,1.8,1.5c2.1,2.3,2.6,6.1,1,9c-1.6,2.8-4.7,4.7-8,4.8
		c-1.6,0.1-3.3-0.3-4.8-1c-1.5-0.8-2.7-1.8-3.8-3.1c-2.1-2.5-3.1-5.9-2.7-9.2c0.2-1.6,0.7-3.3,1.6-4.7c0.9-1.5,1.9-2.6,3.1-3.7
		c2.4-2.2,5.6-3.4,8.9-3.7c3.3-0.2,6.7,0.6,9.5,2.4c2.8,1.7,5.1,4.2,6.6,7.1c1.6,2.9,2.3,6.2,2.2,9.6c-0.2,3.3-1.3,6.6-3.2,9.3
		c-0.5,0.7-1,1.3-1.5,1.9c-0.5,0.6-1,1.2-1.6,1.7s-1.2,1-1.8,1.5s-1.3,0.9-2,1.3c-2.7,1.5-5.7,2.5-8.7,2.7c-6,0.5-12-1.8-15.6-6
		c-0.1-0.2-0.1-0.4,0-0.6C-834.4-218.2-834.3-218.2-834.1-218.2z"/>
</g>
<path d="M-874.5-142c2.2,7.5,4.2,12.3,5.8,14.5c0.7,0.9,1.3,1.4,1.7,1.4c0.7,0,1.8-0.4,3.4-1.1l0.7-0.4l1.4,2.2
	c-1.5,1.4-3.2,2.5-5.1,3.4c-1.9,0.9-3.8,1.3-5.5,1.3s-3.1-0.7-4.2-2.2c-1.1-1.5-2.1-3.6-3-6.4c-0.9-2.8-1.8-6.5-2.7-10.9
	c-1.3,0.1-2.3,0.1-2.9,0.1c-2,8.8-3.2,14.7-3.4,17.8c-1.7,0.8-4.4,1.3-8,1.3c-0.8,0-1.3,0-1.6-0.1c0.3-2.3,4.9-23.3,4.9-23.3
	l8.9,0.2h1.4c2.4,0,4.3-1.1,5.7-3.2"/>
<g>
	<path d="M-898.5-142.8c4.8,2.2,9.8,2.4,14.1,1.1c4.3-1.3,7.8-4.2,9.8-7.7c1-1.7,1.4-3.6,1.6-5.5c0-0.9,0-1.9-0.2-2.9
		c0-0.5-0.2-0.9-0.3-1.4c-0.2-0.4-0.3-0.9-0.5-1.4c-0.7-1.8-1.9-3.5-3.5-4.7c-1.5-1.2-3.3-1.8-5.3-1.8c-1.9,0-3.9,0.6-5.5,1.8
		c-0.8,0.6-1.6,1.3-2.1,2.1s-0.9,1.7-1.1,2.6c-0.4,1.9,0,3.9,1.1,5.6c1.2,1.7,2.8,2.8,4.8,2.9c2,0.2,4-0.8,5.2-2.5
		c1.2-1.6,1.2-4-0.1-5.7c-0.6-0.9-1.5-1.5-2.5-1.7s-2.1,0-3.1,0.5c-0.9,0.6-1.6,1.5-1.8,2.6c-0.1,1.1,0.3,2.3,1.2,3.1
		c0.2,0.1,0.2,0.4,0,0.6c-0.1,0.2-0.4,0.2-0.5,0.1c-1.2-0.8-2-2.2-2-3.8c0-0.8,0.2-1.5,0.5-2.2c0.4-0.7,0.9-1.3,1.5-1.7
		c1.2-1,2.8-1.4,4.4-1.2c0.8,0.1,1.6,0.3,2.3,0.7s1.3,0.9,1.8,1.5c2.1,2.3,2.6,6.1,1,9c-1.6,2.8-4.7,4.7-8,4.8
		c-1.6,0.1-3.3-0.3-4.8-1c-1.5-0.8-2.7-1.8-3.8-3.1c-2.1-2.5-3.1-5.9-2.7-9.2c0.2-1.6,0.7-3.3,1.6-4.7c0.9-1.5,1.9-2.6,3.1-3.7
		c2.4-2.2,5.6-3.4,8.9-3.7c3.3-0.2,6.7,0.6,9.5,2.4c2.8,1.7,5.1,4.2,6.6,7.1c1.6,2.9,2.3,6.2,2.2,9.6c-0.2,3.3-1.3,6.6-3.2,9.3
		c-0.5,0.7-1,1.3-1.5,1.9c-0.5,0.6-1,1.2-1.6,1.7s-1.2,1-1.8,1.5s-1.3,0.9-2,1.3c-2.7,1.5-5.7,2.5-8.7,2.7c-6,0.5-12-1.8-15.6-6
		c-0.1-0.2-0.1-0.4,0-0.6C-898.8-142.8-898.7-142.9-898.5-142.8z"/>
</g>
<path d="M-799.4-142c2.2,7.5,4.2,12.3,5.8,14.5c0.7,0.9,1.3,1.4,1.7,1.4c0.7,0,1.8-0.4,3.4-1.1l0.7-0.4l1.4,2.2
	c-1.5,1.4-3.2,2.5-5.1,3.4c-1.9,0.9-3.8,1.3-5.5,1.3s-3.1-0.7-4.2-2.2c-1.1-1.5-2.1-3.6-3-6.4c-0.9-2.8-1.8-6.5-2.7-10.9
	c-1.3,0.1-2.3,0.1-2.9,0.1c-2,8.8-3.2,14.7-3.4,17.8c-1.7,0.8-4.4,1.3-8,1.3c-0.8,0-1.3,0-1.6-0.1c0.3-2.3,4.9-23.3,4.9-23.3
	l8.9,0.2h1.4c2.4,0,4.3-1.1,5.7-3.2"/>
<g>
	<path d="M-823.4-142.8c5.1,2.3,10.4,2.4,14.9,0.8c2.2-0.8,4.2-2,5.9-3.6c0.8-0.8,1.6-1.6,2.2-2.5c0.6-0.9,1.3-1.9,1.8-2.9
		c2-4.1,2.5-8.3,0.7-12.2c-0.4-1-1.1-1.9-1.8-2.8c-0.7-0.8-1.5-1.5-2.4-2.2c-1.8-1.2-3.9-1.8-6.1-1.8c-2.2,0-4.4,0.7-6.2,1.9
		c-0.9,0.6-1.7,1.4-2.4,2.2s-1.2,1.7-1.5,2.7c-0.7,2-0.5,4.3,0.5,6.2s2.8,3.4,4.9,3.9c1,0.2,2.1,0.2,3.2-0.1
		c1.1-0.3,2.1-0.8,2.9-1.6c0.4-0.4,0.8-0.8,1-1.2c0.3-0.4,0.4-0.9,0.5-1.5c0.2-1.1,0-2.2-0.6-3.2c-0.5-1-1.4-1.9-2.4-2.2
		c-1-0.4-2.3-0.3-3.3,0.2s-1.9,1.5-2.1,2.6c-0.2,1.2,0.2,2.5,1.2,3.3c0.2,0.1,0.2,0.4,0,0.6c-0.1,0.2-0.4,0.2-0.5,0.1
		c-1.3-0.9-2.1-2.4-2-4c0-0.8,0.3-1.6,0.8-2.3c0.4-0.7,1-1.3,1.7-1.7c1.4-0.9,3.1-1.1,4.8-0.7c1.7,0.5,3,1.6,3.9,3s1.4,3.1,1.3,4.8
		c-0.1,0.9-0.2,1.7-0.6,2.5c-0.4,0.8-0.9,1.6-1.4,2.1c-1.1,1.2-2.5,2.2-4.1,2.8s-3.3,0.8-5,0.6c-3.4-0.5-6.5-2.6-8.2-5.6
		c-1.8-2.9-2.4-6.5-1.6-9.9c0.4-1.7,1.2-3.3,2.2-4.7c1-1.3,2.1-2.6,3.5-3.6c2.7-2,6-3.2,9.4-3.4s6.9,0.6,9.8,2.3
		c1.5,0.8,2.9,1.9,4.1,3.1c1.2,1.2,2.3,2.5,3.2,4c1.8,2.9,2.9,6.5,2.7,10c-0.1,3.5-1.2,6.9-2.9,9.7c-0.9,1.4-1.8,2.7-2.9,4
		c-1.1,1.2-2.4,2.3-3.7,3.3c-2.7,1.9-5.9,3.1-9.1,3.5c-3.2,0.4-6.4,0.1-9.3-0.9c-2.9-1.1-5.5-2.7-7.4-5c-0.1-0.2-0.1-0.4,0-0.6
		C-823.7-142.8-823.6-142.9-823.4-142.8z"/>
</g>
<path d="M-723.6-142c2.2,7.5,4.2,12.3,5.8,14.5c0.7,0.9,1.3,1.4,1.7,1.4c0.7,0,1.8-0.4,3.4-1.1l0.7-0.4l1.4,2.2
	c-1.5,1.4-3.2,2.5-5.1,3.4c-1.9,0.9-3.8,1.3-5.5,1.3s-3.1-0.7-4.2-2.2c-1.1-1.5-2.1-3.6-3-6.4c-0.9-2.8-1.8-6.5-2.7-10.9
	c-1.3,0.1-2.3,0.1-2.9,0.1c-2,8.8-3.2,14.7-3.4,17.8c-1.7,0.8-4.4,1.3-8,1.3c-0.8,0-1.3,0-1.6-0.1c0.3-2.3,4.9-23.3,4.9-23.3
	l8.9,0.2h1.4c2.4,0,4.3-1.1,5.7-3.2"/>
<path d="M-747.6-142.8c5.1,2.3,10.4,2.4,14.9,0.8c2.2-0.8,4.2-2,5.9-3.6c0.8-0.8,1.6-1.6,2.2-2.5c0.6-0.9,1.3-1.9,1.8-2.9
	c2-4.1,2.5-8.3,0.7-12.2c-0.4-1-1.1-1.9-1.8-2.8c-0.7-0.8-1.5-1.5-2.4-2.2c-1.8-1.2-3.9-1.8-6.1-1.8c-2.2,0-4.4,0.7-6.2,1.9
	c-0.9,0.6-1.7,1.4-2.4,2.2s-1.2,1.7-1.5,2.7c-0.7,2-0.5,4.3,0.5,6.2s2.8,3.4,4.9,3.9c1,0.2,2.1,0.2,3.2-0.1c1.1-0.3,2.1-0.8,2.9-1.6
	c0.4-0.4,0.8-0.8,1-1.2c0.3-0.4,0.4-0.9,0.5-1.5c0.2-1.1,0-2.2-0.6-3.2c-0.5-1-1.4-1.9-2.4-2.2c-1-0.4-2.3-0.3-3.3,0.2
	s-1.9,1.5-2.1,2.6c-0.2,1.2,0.2,2.5,1.2,3.3c0.2,0.1,0.2,0.4,0,0.6c-0.1,0.2-0.4,0.2-0.5,0.1c-1.3-0.9-2.1-2.4-2-4
	c0-0.8,0.3-1.6,0.8-2.3c0.4-0.7,1-1.3,1.7-1.7c1.4-0.9,3.1-1.1,4.8-0.7c1.7,0.5,3,1.6,3.9,3s1.4,3.1,1.3,4.8
	c-0.1,0.9-0.2,1.7-0.6,2.5c-0.4,0.8-0.9,1.6-1.4,2.1c-1.1,1.2-2.5,2.2-4.1,2.8s-3.3,0.8-5,0.6c-3.4-0.5-6.5-2.6-8.2-5.6
	c-1.8-2.9-2.4-6.5-1.6-9.9c0.4-1.7,1.2-3.3,2.2-4.7c1-1.3,2.1-2.6,3.5-3.6c2.7-2,6-3.2,9.4-3.4s6.9,0.6,9.8,2.3
	c1.5,0.8,2.9,1.9,4.1,3.1c1.2,1.2,2.3,2.5,3.2,4c1.8,2.9,2.9,6.5,2.7,10c-0.1,3.5-1.2,6.9-2.9,9.7c-0.9,1.4-1.8,2.7-2.9,4
	c-1.1,1.2-2.4,2.3-3.7,3.3c-2.7,1.9-5.9,3.1-9.1,3.5c-3.2,0.4-6.4,0.1-9.3-0.9c-2.9-1.1-5.5-2.7-7.4-5c-0.1-0.2-0.1-0.4,0-0.6
	C-747.9-142.8-747.8-142.9-747.6-142.8z"/>
<path d="M-627.9-129l-0.7,0.4c-1.5,0.7-2.6,1.1-3.4,1.1c-0.4,0-1-0.5-1.7-1.4c-1.5-2-3.2-6.3-5.2-12.8c0.1,0,0.1-0.1,0.2-0.1
	c1.4-0.9,2.6-2,3.7-3.3c1.1-1.3,2.1-2.5,2.9-4c1.7-2.8,2.8-6.2,2.9-9.7c0.1-3.5-0.9-7.1-2.7-10c-0.9-1.5-2-2.8-3.2-4
	s-2.6-2.2-4.1-3.1c-3-1.7-6.4-2.5-9.8-2.3c-3.4,0.2-6.7,1.4-9.4,3.4c-1.3,1-2.5,2.2-3.5,3.6c-1,1.4-1.8,3-2.2,4.7
	c-0.8,3.4-0.2,7,1.6,9.9s4.8,5.1,8.2,5.6c1.7,0.2,3.5,0,5-0.6c1.6-0.6,3-1.6,4.1-2.8c0.5-0.6,1.1-1.3,1.4-2.1
	c0.4-0.8,0.5-1.7,0.6-2.5c0.1-1.7-0.4-3.4-1.3-4.8c-0.9-1.4-2.2-2.5-3.9-3c-1.6-0.4-3.4-0.2-4.8,0.7c-0.7,0.4-1.3,1-1.7,1.7
	s-0.7,1.5-0.8,2.3c-0.1,1.6,0.7,3.2,2,4c0.2,0.1,0.4,0.1,0.5-0.1c0.1-0.2,0.1-0.4,0-0.6c-1-0.8-1.4-2.1-1.2-3.3s1-2.1,2.1-2.6
	c1-0.5,2.3-0.6,3.3-0.2c1,0.4,1.9,1.2,2.4,2.2s0.7,2.2,0.6,3.2c-0.1,0.5-0.2,1-0.5,1.5c-0.3,0.4-0.6,0.8-1,1.2
	c-0.8,0.8-1.9,1.3-2.9,1.6c-1.1,0.3-2.2,0.3-3.2,0.1c-2.1-0.5-3.9-2-4.9-3.9s-1.1-4.2-0.5-6.2c0.3-1,0.8-1.9,1.5-2.7
	c0.7-0.9,1.5-1.6,2.4-2.2c1.8-1.2,4-1.9,6.2-1.9s4.3,0.6,6.1,1.8c0.9,0.6,1.7,1.3,2.4,2.2c0.7,0.8,1.3,1.8,1.8,2.8
	c1.8,3.9,1,9.7-0.7,12.2c-2.9,4.1-6.4,5.7-8.8,5.7l-9.8-0.2c0,0-4.8,22.6-5.1,25c0.3,0,0.8,0.1,1.6,0.1c3.6,0,6.3-0.4,8-1.3
	c0.2-3.1,1.3-9,3.4-17.8c0.7,0,1.7,0,2.9-0.1c0.9,4.4,1.8,8.1,2.7,10.9c0.9,2.8,1.9,5,3,6.4c1.1,1.5,2.5,2.2,4.2,2.2
	s3.5-0.4,5.5-1.3c1.9-0.9,3.6-2,5.1-3.4L-627.9-129z"/>
<g>
	<path d="M-435.3-361.6c0,1.7-0.5,4.6-1.6,8.7s-1.6,6.8-1.6,8c0,1.3,0.2,1.9,0.5,1.9c0.2,0,1.2-0.4,2.8-1.1l0.7-0.4l1,2.1
		c-0.4,0.3-0.8,0.7-1.4,1.2s-1.7,1.1-3.4,2c-1.6,0.8-3.2,1.2-4.6,1.2s-2.5-0.4-3.3-1.3s-1.2-2-1.2-3.5s0.5-4.1,1.5-7.8
		c1-3.7,1.5-6.2,1.5-7.3c0-1.7-0.5-3.3-1.6-4.7l-0.5-0.7l0.1-0.8c2.1-0.6,5.6-0.9,10.3-0.9C-435.6-364.4-435.3-363.2-435.3-361.6z
		 M-442.2-371.6c-0.8-0.8-1.2-1.8-1.2-3.1s0.5-2.5,1.6-3.5s2.4-1.5,3.8-1.5s2.6,0.4,3.4,1.2c0.8,0.8,1.2,1.9,1.2,3.1
		c0,1.3-0.6,2.5-1.7,3.4c-1.1,1-2.4,1.5-3.8,1.5C-440.3-370.4-441.4-370.8-442.2-371.6z"/>
	<path d="M-417.6-362.3c-1.6,0-2.9,1.3-3.8,4c-1,2.7-1.4,5.5-1.4,8.5c0,4.8,1.5,7.2,4.4,7.2c1,0,2-0.2,3.1-0.7s1.9-0.9,2.6-1.4
		l0.9-0.7l1.4,1.9c-0.3,0.4-1,1-1.9,1.7c-1,0.7-1.9,1.3-2.7,1.8s-1.9,0.9-3.2,1.3c-1.3,0.4-2.6,0.6-3.9,0.6c-3.1,0-5.5-1-7-3.1
		s-2.3-4.8-2.3-8.2c0-4.8,1.3-8.6,3.9-11.6s6-4.4,10.1-4.4c2.7,0,4.8,0.6,6.4,1.8c1.6,1.2,2.4,2.7,2.4,4.5s-0.6,3.3-1.7,4.6
		c-1,0-2.2-0.2-3.5-0.7c-1.3-0.4-2.3-1-3-1.6l0.9-5.3C-416.5-362.2-417-362.3-417.6-362.3z"/>
	<path d="M-407.8-349.1c0-5,1.5-8.9,4.5-11.9c3-2.9,6.5-4.4,10.3-4.4c2.4,0,4.3,0.6,5.8,1.7c1.5,1.2,2.3,2.7,2.3,4.6
		s-0.5,3.6-1.5,4.9s-2.2,2.3-3.6,3.1c-2.8,1.4-5.4,2.3-7.8,2.6l-1.4,0.2c0.3,3.8,1.8,5.6,4.6,5.6c1,0,2-0.2,3.1-0.7s1.9-1,2.5-1.4
		l0.9-0.7l1.4,1.9c-0.3,0.4-1,1-1.9,1.7c-1,0.7-1.9,1.3-2.7,1.8c-2.3,1.3-4.9,1.9-7.6,1.9s-4.9-1-6.5-2.9
		C-407-342.9-407.8-345.6-407.8-349.1z M-394.4-353.6c1.2-1.4,1.8-3.1,1.8-5.3c0-2.2-0.6-3.2-1.9-3.2c-1.5,0-2.7,1.3-3.5,3.9
		s-1.2,5-1.2,7.2C-397.2-351.4-395.6-352.3-394.4-353.6z"/>
	<path d="M-337.3-338c-2.8,0-4.9-1-6.5-2.9s-2.3-4.6-2.3-8.1c0-4.4,1.2-8.3,3.6-11.5s5.7-4.8,9.9-4.8l2.2,0.1
		c0.7-0.4,1.4-0.5,2.3-0.5c3.2,0,4.7,3,4.7,8.9c1.6-0.1,3.3-0.3,5-0.7l1-0.2l0.4,2.3c-1.3,0.6-3.1,1.1-5.3,1.5l-1.2,0.2
		c-0.8,4.2-2.3,7.9-4.6,10.9C-330.7-339.5-333.6-338-337.3-338z M-334-343.1c1.7,0,3.2-1.1,4.5-3.2c1.3-2.2,2.3-4.4,2.8-6.8
		c-4.3,0-6.4-1.6-6.4-4.8c0-1.3,0.3-2.5,0.8-3.6l0.3-0.6c-0.2-0.1-0.4-0.1-0.6-0.1s-0.4,0-0.5,0.1c-1,0.6-1.9,2.1-2.8,4.5
		s-1.3,5.1-1.3,8.1C-337.3-345.3-336.2-343.1-334-343.1z"/>
	<path d="M-316.5-338c-1.4,0-2.5-0.5-3.4-1.4s-1.3-2.2-1.3-3.9c0-1.7,1-7,3-15.9s3-15.4,3-19.3l-0.4-2.6c3.1-1.1,6-1.6,8.8-1.6
		c0.4,0.6,0.6,1.5,0.6,2.9c0,3.2-1,9.4-3,18.6s-3,14.5-3,16s0.2,2.2,0.5,2.2l4.2-1.5l1.1,2.1c-1.4,1.1-3,2.1-4.9,3
		C-313.5-338.4-315.1-338-316.5-338z"/>
	<path d="M-300.5-338c-1.4,0-2.5-0.5-3.4-1.4s-1.3-2.2-1.3-3.9c0-1.7,1-7,3-15.9s3-15.4,3-19.3l-0.4-2.6c3.1-1.1,6-1.6,8.8-1.6
		c0.4,0.6,0.6,1.5,0.6,2.9c0,3.2-1,9.4-3,18.6s-3,14.5-3,16s0.2,2.2,0.5,2.2l4.2-1.5l1.1,2.1c-1.4,1.1-3,2.1-5,3
		C-297.5-338.4-299.2-338-300.5-338z"/>
	<path d="M-347.7-344.8l-0.7,0.4c-1.5,0.7-2.6,1.1-3.4,1.1c-0.4,0-1-0.5-1.7-1.4c-1.5-2-3.2-6.3-5.2-12.8c0.1,0,0.1-0.1,0.2-0.1
		c1.4-0.9,2.6-2,3.7-3.3s2.1-2.5,2.9-4c1.7-2.8,2.8-6.2,2.9-9.7s-0.9-7.1-2.7-10c-0.9-1.5-2-2.8-3.2-4s-2.6-2.2-4.1-3.1
		c-3-1.7-6.4-2.5-9.8-2.3s-6.7,1.4-9.4,3.4c-1.3,1-2.5,2.2-3.5,3.6s-1.8,3-2.2,4.7c-0.8,3.4-0.2,7,1.6,9.9c1.8,2.9,4.8,5.1,8.2,5.6
		c1.7,0.2,3.5,0,5-0.6c1.6-0.6,3-1.6,4.1-2.8c0.5-0.6,1.1-1.3,1.4-2.1c0.4-0.8,0.5-1.7,0.6-2.5c0.1-1.7-0.4-3.4-1.3-4.8
		s-2.2-2.5-3.9-3c-1.6-0.4-3.4-0.2-4.8,0.7c-0.7,0.4-1.3,1-1.7,1.7c-0.4,0.7-0.7,1.5-0.8,2.3c-0.1,1.6,0.7,3.2,2,4
		c0.2,0.1,0.4,0.1,0.5-0.1s0.1-0.4,0-0.6c-1-0.8-1.4-2.1-1.2-3.3c0.2-1.2,1-2.1,2.1-2.6c1-0.5,2.3-0.6,3.3-0.2s1.9,1.2,2.4,2.2
		s0.7,2.2,0.6,3.2c-0.1,0.5-0.2,1-0.5,1.5c-0.3,0.4-0.6,0.8-1,1.2c-0.8,0.8-1.9,1.3-2.9,1.6c-1.1,0.3-2.2,0.3-3.2,0.1
		c-2.1-0.5-3.9-2-4.9-3.9s-1.1-4.2-0.5-6.2c0.3-1,0.8-1.9,1.5-2.7c0.7-0.9,1.5-1.6,2.4-2.2c1.8-1.2,4-1.9,6.2-1.9s4.3,0.6,6.1,1.8
		c0.9,0.6,1.7,1.3,2.4,2.2c0.7,0.8,1.3,1.8,1.8,2.8c1.8,3.9,1,9.7-0.7,12.2c-2.9,4.1-6.4,5.7-8.8,5.7l-9.8-0.2c0,0-4.8,22.6-5.1,25
		c0.3,0,0.8,0.1,1.6,0.1c3.6,0,6.3-0.4,8-1.3c0.2-3.1,1.3-9,3.4-17.8c0.7,0,1.7,0,2.9-0.1c0.9,4.4,1.8,8.1,2.7,10.9
		c0.9,2.8,1.9,5,3,6.4c1.1,1.5,2.5,2.2,4.2,2.2s3.5-0.4,5.5-1.3c1.9-0.9,3.6-2,5.1-3.4L-347.7-344.8z"/>
</g>
<path class="st1" d="M-437.9-259.2c-1.3,0-2.4,0.4-3.4,1.3s-1.4,1.9-1.4,3s0.3,2,1,2.7s1.6,1,2.8,1c1.2,0,2.4-0.4,3.4-1.3
	c1-0.9,1.5-1.8,1.5-3c0-1.1-0.3-2-1-2.7C-435.7-258.9-436.6-259.2-437.9-259.2z"/>
<path class="st1" d="M-435-223.7c-2.5,1.2-2.8,1.2-3.1,1.2c-1.2,0-1.2-1.8-1.2-2.5c0-1.3,0.5-4,1.6-8.2c1.1-4,1.6-6.9,1.6-8.5
	c0-1.5-0.2-2.3-0.5-2.8c-4.2,0-7.3,0.3-9.4,0.8v0.1l0.4,0.5c1.1,1.6,1.7,3.3,1.7,5.1c0,1.2-0.5,3.6-1.5,7.5c-1,3.7-1.5,6.2-1.5,7.6
	c0,1.3,0.3,2.3,1,3s1.6,1.1,2.8,1.1c1.3,0,2.7-0.4,4.3-1.2c1.6-0.8,2.7-1.4,3.2-1.9c0.4-0.3,0.8-0.6,1-0.9l-0.5-1.1L-435-223.7z"/>
<path class="st1" d="M-437.9-260.5c-1.6,0-3,0.6-4.2,1.7s-1.9,2.5-1.9,4s0.5,2.7,1.4,3.6c0.9,0.9,2.2,1.4,3.8,1.4
	c1.6,0,3-0.6,4.2-1.7c1.3-1.1,1.9-2.4,1.9-3.9c0-1.5-0.5-2.7-1.4-3.6C-435-260.1-436.3-260.5-437.9-260.5z M-435.1-252.1
	c-1.1,1-2.4,1.5-3.8,1.5s-2.5-0.4-3.3-1.2s-1.2-1.8-1.2-3.1s0.5-2.5,1.6-3.5s2.4-1.5,3.8-1.5s2.6,0.4,3.4,1.2
	c0.8,0.8,1.2,1.9,1.2,3.1C-433.3-254.2-433.9-253.1-435.1-252.1z"/>
<path class="st1" d="M-435.5-224.9c-1.4,0.6-2,0.9-2.3,1c0-0.2-0.1-0.5-0.1-1.2c0-1.2,0.5-3.8,1.6-7.9c1.1-4.2,1.6-7.1,1.6-8.8
	c0-1.9-0.3-3.1-0.9-3.8l-0.2-0.2h-0.3c-4.9,0-8.3,0.3-10.5,0.9l-0.4,0.1l-0.1,1.5l0.7,0.9c1,1.4,1.4,2.8,1.4,4.4
	c0,1.1-0.5,3.5-1.5,7.1c-1,3.8-1.5,6.4-1.5,8s0.5,2.9,1.4,3.9s2.2,1.5,3.8,1.5c1.5,0,3.1-0.4,4.9-1.3c1.7-0.8,2.8-1.5,3.5-2
	c0.6-0.5,1.1-0.9,1.5-1.2l0.4-0.3l-1.5-3.1L-435.5-224.9z M-435-221.4c-0.6,0.5-1.7,1.1-3.4,2c-1.6,0.8-3.2,1.2-4.6,1.2
	s-2.5-0.4-3.3-1.3c-0.8-0.9-1.2-2-1.2-3.5s0.5-4.1,1.5-7.8s1.5-6.2,1.5-7.3c0-1.7-0.5-3.3-1.6-4.7l-0.5-0.7l0.1-0.8
	c2.1-0.6,5.6-0.9,10.3-0.9c0.5,0.6,0.8,1.7,0.8,3.4s-0.5,4.6-1.6,8.7c-1.1,4.1-1.6,6.8-1.6,8c0,1.3,0.2,1.9,0.5,1.9
	c0.2,0,1.2-0.4,2.8-1.1l0.7-0.4l1,2.1C-433.9-222.2-434.4-221.8-435-221.4z"/>
<path class="st1" d="M-412.4-224.3c-0.7,0.5-1.6,1-2.7,1.4c-1.2,0.5-2.3,0.7-3.3,0.7c-3.4,0-5.1-2.6-5.1-7.9c0-3.1,0.5-6.1,1.5-8.8
	c1.1-2.9,2.6-4.4,4.5-4.4c0.8,0,1.4,0.2,1.9,0.5l0.4,0.2l-0.9,5.3c0.6,0.5,1.4,0.9,2.5,1.3c1.1,0.4,2.1,0.6,3,0.6
	c0.9-1.1,1.3-2.4,1.3-3.9c0-1.6-0.7-2.9-2.1-4c-1.5-1.1-3.5-1.7-6-1.7c-3.9,0-7.1,1.4-9.6,4.2s-3.8,6.6-3.8,11.1
	c0,3.3,0.7,5.9,2.2,7.8c1.4,1.9,3.6,2.8,6.5,2.8c1.2,0,2.5-0.2,3.7-0.6c1.3-0.4,2.3-0.8,3.1-1.3c0.8-0.5,1.7-1.1,2.6-1.8
	c0.7-0.6,1.2-1,1.5-1.2l-0.7-0.9L-412.4-224.3z"/>
<path class="st1" d="M-413.2-225.3c-0.6,0.4-1.4,0.8-2.5,1.3c-1,0.4-1.9,0.6-2.8,0.6s-3.8,0-3.8-6.6c0-3,0.5-5.8,1.4-8.3
	c0.9-2.4,1.9-3.6,3.2-3.6c0.3,0,0.6,0,0.8,0.1l-0.9,5.1l0.3,0.2c0.7,0.7,1.8,1.3,3.2,1.8c1.4,0.5,2.6,0.7,3.7,0.7h0.3l0.2-0.2
	c1.2-1.4,1.8-3.1,1.8-5c0-2-0.9-3.7-2.6-5s-4-2-6.8-2c-4.3,0-7.9,1.6-10.6,4.7c-2.7,3.1-4.1,7.1-4.1,12c0,3.6,0.8,6.5,2.5,8.6
	c1.7,2.2,4.2,3.3,7.5,3.3c1.3,0,2.7-0.2,4.1-0.6c1.4-0.4,2.5-0.9,3.4-1.4s1.8-1.1,2.8-1.8c1-0.8,1.7-1.4,2.1-1.9l0.3-0.4l-2.1-2.8
	L-413.2-225.3z M-412.5-221.9c-1,0.7-1.9,1.3-2.7,1.8s-1.9,0.9-3.2,1.3c-1.3,0.4-2.6,0.6-3.9,0.6c-3.1,0-5.5-1-7-3.1
	s-2.3-4.8-2.3-8.2c0-4.8,1.3-8.6,3.9-11.6s6-4.4,10.1-4.4c2.7,0,4.8,0.6,6.4,1.8s2.4,2.7,2.4,4.5s-0.6,3.3-1.7,4.6
	c-1,0-2.2-0.2-3.5-0.7c-1.3-0.4-2.3-1-3-1.6l0.9-5.3c-0.4-0.2-0.9-0.4-1.5-0.4c-1.6,0-2.9,1.3-3.8,4c-1,2.7-1.4,5.5-1.4,8.5
	c0,4.8,1.5,7.2,4.4,7.2c1,0,2-0.2,3.1-0.7s1.9-0.9,2.6-1.4l0.9-0.7l1.4,1.9C-410.9-223.2-411.5-222.6-412.5-221.9z"/>
<path class="st1" d="M-386.9-234.6c0.9-1.2,1.3-2.7,1.3-4.5c0-1.7-0.7-3.1-2-4.1c-1.4-1.1-3.2-1.6-5.4-1.6c-3.6,0-7,1.4-9.8,4.2
	c-2.9,2.8-4.3,6.6-4.3,11.4c0,3.3,0.8,5.9,2.3,7.7s3.5,2.7,6,2.7c2.6,0,5.1-0.6,7.3-1.8c0.8-0.5,1.7-1,2.6-1.8
	c0.7-0.6,1.2-1,1.5-1.2l-0.7-1l-0.4,0.3c-0.6,0.5-1.5,1-2.7,1.5s-2.3,0.8-3.3,0.8c-2.2,0-4.9-1.1-5.3-6.2v-0.6l2.1-0.3
	c2.3-0.3,4.8-1.2,7.6-2.6C-389-232.4-387.8-233.4-386.9-234.6z M-393.9-233.4c-1.3,1.5-3.1,2.4-5.2,2.8l-0.8,0.1v-0.8
	c0-2.3,0.4-4.8,1.3-7.4c0.9-2.9,2.3-4.3,4.1-4.3c1.2,0,2.6,0.7,2.6,3.9C-392-236.8-392.6-234.9-393.9-233.4z"/>
<path class="st1" d="M-394.5-242.4c-1.5,0-2.7,1.3-3.5,3.9c-0.8,2.6-1.2,5-1.2,7.2c2-0.4,3.7-1.2,4.9-2.6c1.2-1.4,1.8-3.1,1.8-5.3
	C-392.6-241.3-393.2-242.4-394.5-242.4z M-394.9-234.3c-0.9,1.1-2.2,1.8-3.7,2.2c0.1-1.9,0.5-4,1.2-6.2c0.7-2.3,1.7-3.4,2.9-3.4
	c0.3,0,1.3,0,1.3,2.6C-393.3-237.1-393.8-235.5-394.9-234.3z"/>
<path class="st1" d="M-389.7-230.6c1.5-0.8,2.8-1.9,3.8-3.2c1.1-1.4,1.6-3.2,1.6-5.3s-0.9-3.9-2.5-5.2c-1.6-1.2-3.7-1.9-6.2-1.9
	c-4,0-7.6,1.5-10.7,4.5s-4.7,7.2-4.7,12.3c0,3.6,0.9,6.5,2.5,8.6c1.7,2.1,4.1,3.2,7,3.2s5.5-0.7,7.9-2c0.9-0.5,1.8-1.1,2.8-1.8
	c1-0.8,1.7-1.4,2.1-1.9l0.3-0.4l-2.1-2.8l-1.4,1.1c-0.6,0.4-1.4,0.9-2.4,1.4c-1,0.4-1.9,0.7-2.8,0.7c-1.5,0-3.4-0.5-3.9-4.4l0.8-0.1
	C-395.2-228.2-392.6-229.1-389.7-230.6z M-399.2-228.3c0.3,3.8,1.8,5.6,4.6,5.6c1,0,2-0.2,3.1-0.7s1.9-1,2.5-1.4l0.9-0.7l1.4,1.9
	c-0.3,0.4-1,1-1.9,1.7c-1,0.7-1.9,1.3-2.7,1.8c-2.3,1.3-4.9,1.9-7.6,1.9s-4.9-1-6.5-2.9c-1.6-2-2.4-4.7-2.4-8.2
	c0-5,1.5-8.9,4.5-11.9c3-2.9,6.5-4.4,10.3-4.4c2.4,0,4.3,0.6,5.8,1.7c1.5,1.2,2.3,2.7,2.3,4.6c0,1.9-0.5,3.6-1.5,4.9
	c-1,1.3-2.2,2.3-3.6,3.1c-2.8,1.4-5.4,2.3-7.8,2.6L-399.2-228.3z"/>
<path class="st1" d="M-322.5-236.3h-0.7v-0.7c0-8.3-3.1-8.3-4.1-8.3c-0.7,0-1.4,0.2-2,0.5l-0.2,0.1l-2.3-0.1c-4,0-7,1.5-9.3,4.5
	c-2.3,3.1-3.4,6.8-3.4,11.1c0,3.3,0.7,5.9,2.2,7.7c1.4,1.8,3.4,2.7,6,2.7c3.5,0,6.2-1.4,8.4-4.4c2.2-3,3.8-6.6,4.5-10.7l0.1-0.4
	l1.6-0.3c1-0.2,2-0.4,2.8-0.7c0.1-0.5,0.2-1,0.3-1.5C-319.8-236.6-321.2-236.4-322.5-236.3z M-325.1-233.3c-0.5,2.5-1.5,4.8-2.9,7
	c-1.5,2.4-3.2,3.5-5.1,3.5c-2.6,0-4-2.4-4-7.1c0-3.1,0.5-5.9,1.4-8.3c0.9-2.5,1.9-4.1,3.1-4.8c0.4-0.3,1.3-0.3,1.8,0l0.6,0.3
	l-0.6,1.2c-0.5,1-0.7,2.1-0.7,3.3c0,1.8,0.6,4.1,5.8,4.1h0.8L-325.1-233.3z"/>
<path class="st1" d="M-332.1-238.2c0-1.3,0.3-2.5,0.8-3.6l0.3-0.6c-0.2-0.1-0.4-0.1-0.6-0.1s-0.4,0-0.5,0.1c-1,0.6-1.9,2.1-2.8,4.5
	s-1.3,5.1-1.3,8.1c0,4.3,1.1,6.5,3.3,6.5c1.7,0,3.2-1.1,4.5-3.2c1.3-2.2,2.3-4.4,2.8-6.8C-330-233.4-332.1-235-332.1-238.2z
	 M-329.1-226.9c-1.2,1.9-2.5,2.9-4,2.9c-1.8,0-2.7-2-2.7-5.8c0-2.9,0.4-5.6,1.3-7.9c0.9-2.4,1.7-3.5,2.3-4c-0.4,1.1-0.7,2.2-0.7,3.4
	c0,2.4,1.1,5.2,6.3,5.4C-327.1-230.8-327.9-228.8-329.1-226.9z"/>
<path class="st1" d="M-348.2-224.1c-1.6,0.8-2.8,1.1-3.7,1.1c-0.6,0-1.3-0.5-2.2-1.6c-1.5-2.1-3.3-6.4-5.3-13l-0.1-0.5l0.5-0.4
	c1.4-1,2.6-2,3.6-3.2c1.1-1.2,2-2.5,2.8-3.9c1.8-3,2.7-6.2,2.8-9.4c0.1-3.3-0.8-6.8-2.6-9.7c-0.8-1.3-1.8-2.5-3.1-3.8
	c-1.1-1.1-2.5-2.2-3.9-3c-2.8-1.6-6.2-2.4-9.5-2.2c-3.3,0.2-6.5,1.4-9,3.3c-1.2,0.9-2.4,2.1-3.4,3.4c-1,1.4-1.7,2.9-2.1,4.5
	c-0.8,3.2-0.2,6.6,1.5,9.4c1.7,2.8,4.6,4.8,7.8,5.3c1.6,0.2,3.2,0,4.7-0.5c1.5-0.6,2.8-1.5,3.8-2.6c0.4-0.5,1-1.2,1.3-2
	c0.3-0.7,0.5-1.5,0.5-2.3c0.1-1.5-0.3-3.1-1.2-4.4c-0.9-1.4-2.1-2.3-3.5-2.7c-1.4-0.4-3-0.2-4.3,0.6c-0.6,0.4-1.1,0.9-1.5,1.5
	c-0.3,0.5-0.5,1-0.6,1.6c0.3-1.1,1.2-2.1,2.3-2.7c1.2-0.6,2.6-0.7,3.8-0.2c1.1,0.4,2.1,1.3,2.7,2.5s0.8,2.5,0.6,3.6
	c-0.1,0.6-0.3,1.2-0.6,1.7c-0.3,0.5-0.6,0.9-1.1,1.4c-0.9,0.8-2,1.4-3.2,1.8c-1.1,0.3-2.3,0.3-3.5,0.1c-2.3-0.5-4.3-2.1-5.3-4.3
	c-1-2-1.2-4.6-0.5-6.7c0.3-1,0.9-2,1.6-2.9c0.8-1,1.7-1.8,2.6-2.4c1.9-1.3,4.2-2,6.6-2l0,0c2.3,0,4.6,0.7,6.4,1.9
	c1,0.7,1.8,1.4,2.5,2.3s1.4,1.9,1.8,2.9c1.9,4,1.1,10.1-0.8,12.8c-3.1,4.4-6.9,6-9.4,6l-9.3-0.2c-0.7,3.2-4.2,19.7-4.9,23.7
	c0.2,0,0.5,0,0.8,0c3.3,0,5.8-0.4,7.4-1c0.3-3.2,1.4-9.1,3.3-17.5l0.1-0.5h0.5c0.7,0,1.6,0,2.9-0.1h0.6l0.1,0.6
	c0.9,4.4,1.8,8.1,2.7,10.9c0.9,2.8,1.8,4.9,2.9,6.3c1,1.3,2.2,1.9,3.7,1.9c1.6,0,3.3-0.4,5.2-1.3c1.7-0.8,3.2-1.7,4.6-2.9l-0.8-1.3
	L-348.2-224.1z"/>
<path class="st1" d="M-348.7-225.2c-1.8,0.8-2.7,1-3.1,1c0,0-0.3-0.1-1.2-1.1c-1.4-1.9-3.1-6-5-12.1c1.4-1,2.6-2.1,3.6-3.2
	c1.2-1.3,2.1-2.6,3-4.1c1.9-3.2,2.9-6.6,3-10c0.1-3.6-0.9-7.3-2.8-10.4c-0.8-1.4-1.9-2.7-3.3-4.1c-1.2-1.2-2.6-2.3-4.2-3.2
	c-3-1.7-6.7-2.6-10.2-2.4s-7,1.5-9.7,3.6c-1.3,1-2.6,2.2-3.6,3.7c-1.1,1.5-1.9,3.2-2.3,4.9c-0.9,3.5-0.3,7.3,1.6,10.4
	c1.9,3.2,5.2,5.4,8.7,5.9c1.8,0.2,3.7,0,5.3-0.6c1.7-0.7,3.2-1.7,4.3-3c0.5-0.5,1.1-1.4,1.6-2.3c0.4-0.8,0.6-1.8,0.7-2.8
	c0.1-1.8-0.4-3.6-1.4-5.2c-1.1-1.6-2.6-2.8-4.3-3.2c-1.8-0.5-3.8-0.2-5.3,0.8c-0.7,0.5-1.4,1.1-1.9,1.9s-0.8,1.7-0.9,2.6
	c-0.1,1.8,0.7,3.6,2.3,4.6c0.4,0.3,1,0.2,1.4-0.2s0.3-1.1-0.1-1.5c-0.8-0.7-1.2-1.7-1-2.7c0.1-0.9,0.8-1.7,1.7-2.2
	c0.9-0.4,1.9-0.5,2.8-0.1c0.8,0.3,1.5,1,2,1.9s0.6,1.9,0.5,2.8c-0.1,0.5-0.2,0.9-0.4,1.2c-0.2,0.4-0.5,0.6-0.9,1.1
	c-0.7,0.7-1.6,1.2-2.6,1.5c-0.9,0.2-1.9,0.3-2.9,0.1c-1.9-0.4-3.6-1.8-4.4-3.6c-0.9-1.7-1.1-3.9-0.4-5.7c0.3-0.9,0.7-1.7,1.4-2.5
	c0.7-0.9,1.5-1.6,2.3-2.1c1.7-1.1,3.7-1.8,5.8-1.8l0,0c2,0,4.1,0.6,5.7,1.7c0.9,0.6,1.6,1.3,2.3,2c0.7,0.8,1.2,1.7,1.7,2.6
	c1.7,3.6,1,9.1-0.7,11.5c-2.8,4-6.1,5.4-8.3,5.4l-10.3-0.2l-0.1,0.5c-0.2,0.9-4.8,22.7-5.1,25l-0.1,0.6l0.6,0.1
	c0.3,0,0.9,0.1,1.6,0.1c3.8,0,6.5-0.4,8.3-1.3l0.3-0.2v-0.4c0.2-3,1.3-8.7,3.2-17.2c0.5,0,1.2,0,1.9-0.1c0.9,4.2,1.8,7.7,2.6,10.4
	c0.9,2.9,2,5.1,3.1,6.6c1.2,1.6,2.8,2.4,4.7,2.4c1.8,0,3.7-0.5,5.7-1.4s3.8-2.1,5.3-3.5l0.4-0.4l-2-3.2L-348.7-225.2z M-351.5-219.4
	c-1.9,0.9-3.8,1.3-5.5,1.3s-3.1-0.7-4.2-2.2s-2.1-3.6-3-6.4c-0.9-2.8-1.8-6.5-2.7-10.9c-1.3,0.1-2.3,0.1-2.9,0.1
	c-2,8.8-3.2,14.7-3.4,17.8c-1.7,0.8-4.4,1.3-8,1.3c-0.8,0-1.3,0-1.6-0.1c0.3-2.3,5.1-25,5.1-25l9.8,0.2c2.4,0,5.9-1.6,8.8-5.7
	c1.7-2.5,2.5-8.3,0.7-12.2c-0.4-1-1.1-1.9-1.8-2.8c-0.7-0.8-1.5-1.5-2.4-2.2c-1.8-1.2-3.9-1.8-6.1-1.8s-4.4,0.7-6.2,1.9
	c-0.9,0.6-1.7,1.4-2.4,2.2c-0.7,0.8-1.2,1.7-1.5,2.7c-0.7,2-0.5,4.3,0.5,6.2c1,1.9,2.8,3.4,4.9,3.9c1,0.2,2.1,0.2,3.2-0.1
	s2.1-0.8,2.9-1.6c0.4-0.4,0.8-0.8,1-1.2c0.3-0.4,0.4-0.9,0.5-1.5c0.2-1.1,0-2.2-0.6-3.2c-0.5-1-1.4-1.9-2.4-2.2
	c-1-0.4-2.3-0.3-3.3,0.2s-1.9,1.5-2.1,2.6c-0.2,1.2,0.2,2.5,1.2,3.3c0.2,0.1,0.2,0.4,0,0.6c-0.1,0.2-0.4,0.2-0.5,0.1
	c-1.3-0.9-2.1-2.4-2-4c0-0.8,0.3-1.6,0.8-2.3c0.4-0.7,1-1.3,1.7-1.7c1.4-0.9,3.1-1.1,4.8-0.7c1.7,0.5,3,1.6,3.9,3s1.4,3.1,1.3,4.8
	c-0.1,0.9-0.2,1.7-0.6,2.5s-0.9,1.6-1.4,2.1c-1.1,1.2-2.5,2.2-4.1,2.8s-3.3,0.8-5,0.6c-3.4-0.5-6.5-2.6-8.2-5.6
	c-1.8-2.9-2.4-6.5-1.6-9.9c0.4-1.7,1.2-3.3,2.2-4.7c1-1.3,2.1-2.6,3.5-3.6c2.7-2,6-3.2,9.4-3.4c3.4-0.2,6.9,0.6,9.8,2.3
	c1.5,0.8,2.9,1.9,4.1,3.1s2.3,2.5,3.2,4c1.8,2.9,2.9,6.5,2.7,10c-0.1,3.5-1.2,6.9-2.9,9.7c-0.9,1.4-1.8,2.7-2.9,4
	c-1.1,1.2-2.4,2.3-3.7,3.3c0,0-0.1,0.1-0.2,0.1c2,6.5,3.8,10.8,5.2,12.8c0.7,0.9,1.3,1.4,1.7,1.4c0.7,0,1.8-0.4,3.4-1.1l0.7-0.4
	l1.4,2.2C-347.8-221.4-349.6-220.3-351.5-219.4z"/>
<g>
	<path class="st1" d="M-308.9-222.4c-1.2,0-1.2-1.9-1.2-2.9c0-1.6,1-6.8,3-16.2c2-9.1,3-15.3,3-18.4c0-1.2-0.2-1.9-0.3-2.3
		c-2.4,0-5,0.5-7.7,1.4l0.3,2.1c0,4.1-1,10.6-3,19.6c-2,8.9-3,14.2-3,15.8c0,1.5,0.4,2.6,1.2,3.4c1.6,1.6,4.1,1.6,7.7-0.1
		c1.7-0.8,3.2-1.7,4.4-2.6l-0.6-1.1L-308.9-222.4z"/>
	<path class="st1" d="M-304.4-225.4l-4.3,1.5c0-0.2-0.1-0.7-0.1-1.5c0-1.4,1-6.8,3-15.9c2-9.3,3-15.4,3-18.7c0-1.6-0.2-2.6-0.7-3.3
		l-0.2-0.3h-0.3c-2.8,0-5.8,0.6-9,1.7l-0.5,0.2l0.4,3.1c0,3.9-1,10.4-3,19.2c-2,9.1-3,14.3-3,16c0,1.8,0.5,3.3,1.5,4.3
		s2.3,1.6,3.9,1.6c1.5,0,3.2-0.5,5.3-1.4c2-0.9,3.7-2,5.1-3.1l0.3-0.2c0-0.1,0-0.3,0-0.4L-304.4-225.4z M-308.6-219.5
		c-1.9,0.9-3.6,1.4-5,1.4s-2.5-0.5-3.4-1.4s-1.3-2.2-1.3-3.9s1-7,3-15.9s3-15.4,3-19.3l-0.4-2.6c3.1-1.1,6-1.6,8.8-1.6
		c0.4,0.6,0.6,1.5,0.6,2.9c0,3.2-1,9.4-3,18.6c-2,9.2-3,14.5-3,16s0.2,2.2,0.5,2.2l4.2-1.5l1.1,2.1
		C-305-221.4-306.6-220.4-308.6-219.5z"/>
	<path class="st1" d="M-292.9-222.4c-1.2,0-1.2-1.9-1.2-2.9c0-1.6,1-6.8,3-16.2c2-9.1,3-15.3,3-18.4c0-1.2-0.2-1.9-0.3-2.3
		c-2.4,0-5,0.5-7.7,1.4l0.3,2.1c0,4.1-1,10.6-3,19.6c-2,8.9-3,14.2-3,15.8c0,1.5,0.4,2.6,1.2,3.4c1.6,1.6,4.1,1.6,7.7-0.1
		c1.7-0.8,3.2-1.7,4.4-2.6l-0.6-1.1L-292.9-222.4z"/>
	<path class="st1" d="M-292.7-223.8c0-0.2-0.1-0.7-0.1-1.5c0-1.4,1-6.8,3-15.9c2-9.3,3-15.4,3-18.7c0-1.6-0.2-2.6-0.7-3.3l-0.2-0.3
		h-0.3c-2.8,0-5.8,0.6-9,1.7l-0.5,0.2l0.4,3.1c0,3.9-1,10.4-3,19.2c-2,9.1-3,14.3-3,16c0,0.3,0,0.5,0.1,0.7l0.2,0.3l-0.1,0.1
		c0.2,1.3,0.7,2.4,1.4,3.2c1,1,2.3,1.6,3.9,1.6c1.5,0,3.2-0.5,5.3-1.4c2-0.9,3.7-2,5.1-3.1l0.4-0.3l-1.6-3.1L-292.7-223.8z
		 M-292.6-219.5c-1.9,0.9-3.6,1.4-5,1.4s-2.5-0.5-3.4-1.4s-1.3-2.2-1.3-3.9s1-7,3-15.9s3-15.4,3-19.3l-0.4-2.6
		c3.1-1.1,6-1.6,8.8-1.6c0.4,0.6,0.6,1.5,0.6,2.9c0,3.2-1,9.4-3,18.6c-2,9.2-3,14.5-3,16s0.2,2.2,0.5,2.2l4.2-1.5l1.1,2.1
		C-289-221.4-290.7-220.4-292.6-219.5z"/>
</g>
<path class="st1" d="M-317-238.4c0,0-3.7,0.6-4.9,0.7c-0.1-5.9-1.9-8.9-5.4-8.9c-0.9,0-1.7,0.2-2.4,0.5l-2-0.1
	c-4.4,0-7.9,1.7-10.4,5.1c-2.5,3.3-3.7,7.3-3.7,11.8c0,3.6,0.8,6.5,2.5,8.5c1.7,2.1,4,3.2,7,3.2c3.8,0,7-1.7,9.5-4.9
	c2.3-3.1,3.9-6.7,4.7-10.8l4.3-1L-317-238.4z M-321.5-234l-1.2,0.2c-0.8,4.2-2.3,7.9-4.6,10.9c-2.3,3.1-5.3,4.7-8.9,4.7
	c-2.8,0-4.9-1-6.5-2.9s-2.3-4.6-2.3-8.1c0-4.4,1.2-8.3,3.6-11.5s5.7-4.8,9.9-4.8l2.2,0.1c0.7-0.4,1.4-0.5,2.3-0.5
	c3.2,0,4.7,3,4.7,8.9c1.3-0.1,4.1-0.5,4.7-0.6l-0.6,2.8C-318.4-234.8-320.6-234.2-321.5-234z"/>
<g>
	<path class="st2" d="M85.3,88.4c-7.5,0-14.1,2.6-19.8,7.8c-5.8,5.2-8.7,11.5-8.7,18.5s2.2,12.7,6.5,16.9c4.3,4.2,10.2,6.3,17.5,6.3
		s13.9-2.6,19.8-7.7c6-5.2,9-11.4,9-18.4c0-6.9-2.2-12.5-6.5-16.8C98.8,90.6,92.8,88.4,85.3,88.4z"/>
	<path class="st2" d="M96.3,254.6c-6.3,3-9.3,4.2-10.6,4.7c-0.2-0.9-0.4-2.5-0.4-5.5c0-5.6,2.5-17.9,7.5-36.7
		c5.2-19.6,7.7-33,7.7-41.2c0-8.7-1.4-14.5-4.4-17.9l-0.9-1h-1.4c-22.7,0-38.7,1.4-49,4.3l-2,0.6l-0.5,6.9l3.1,4.2
		c4.5,6.4,6.7,13.2,6.7,20.4c0,4.9-2.3,16.1-6.9,33.2c-4.8,17.9-7.1,30-7.1,37.2c0,7.6,2.2,13.7,6.4,18.3c4.3,4.6,10.2,7,17.6,7
		c7,0,14.6-2,22.6-6.1c7.9-4,13.2-7,16.2-9.4c2.9-2.3,5.1-4.2,6.8-5.7l1.7-1.5l-7.1-14.6L96.3,254.6z"/>
	<path class="st2" d="M200.5,252.6c-2.8,1.9-6.7,4-11.5,6c-4.6,2-9,3-13.1,3c-4.4,0-17.7,0-17.7-30.6c0-13.8,2.2-26.8,6.5-38.8
		c4-11,9.1-16.6,15.1-16.6c1.4,0,2.6,0.1,3.6,0.4l-4.1,23.9l1.2,1.1c3.5,3.3,8.6,6,15.1,8.2c6.4,2.1,12.2,3.2,17.2,3.2h1.4l0.9-1
		c5.7-6.5,8.6-14.4,8.6-23.4c0-9.2-4.1-17.1-12.2-23.4c-7.9-6.1-18.5-9.2-31.7-9.2c-20,0-36.7,7.3-49.4,21.7
		c-12.7,14.3-19.1,33.2-19.1,56c0,16.7,3.9,30.2,11.5,40.2c7.8,10.3,19.7,15.5,35.1,15.5c6.2,0,12.6-1,19.1-2.9
		c6.3-1.9,11.6-4.1,15.7-6.4c4-2.3,8.4-5.2,12.9-8.6c4.8-3.6,7.9-6.4,9.6-8.8l1.3-1.8l-9.6-13L200.5,252.6z"/>
	<path class="st2" d="M501.1,253.1c-8.3,3.9-12.4,4.7-14.3,4.7c-0.1,0-1.6-0.3-5.4-5.2c-6.5-8.9-14.3-27.9-23.3-56.6
		c6.4-4.5,12.1-9.6,16.9-15c5.4-6,9.9-12.1,14-18.9c8.7-14.7,13.6-30.9,13.9-46.8c0.6-16.7-4.1-34-13.1-48.5
		c-3.9-6.4-8.7-12.4-15.2-19C468.9,42,462.3,37,455,32.9c-14.2-8.2-31.1-12.1-47.5-11.2c-16.5,1-32.6,6.9-45.3,16.7
		c-6.2,4.6-11.9,10.5-17,17.4c-5,7-8.7,15-10.6,23c-4,16.5-1.2,34.2,7.6,48.5c8.9,14.8,24.1,25,40.7,27.4c8.6,1.1,17.2,0.1,24.9-2.9
		c7.9-3,14.9-7.8,20.2-13.8c2.2-2.5,5.3-6.3,7.2-10.8c1.7-3.8,2.8-8.2,3.1-12.9c0.5-8.3-1.8-16.8-6.5-24.1
		c-5-7.6-12.1-12.9-19.9-15.1c-8.3-2.3-17.5-0.9-24.7,3.6c-3.5,2.2-6.6,5.3-8.9,8.8c-2.5,3.8-3.9,8-4.1,12.1
		c-0.6,8.4,3.5,16.9,10.5,21.6c2.1,1.4,4.9,1,6.5-0.9c1.7-2.1,1.5-5.2-0.6-6.9c-3.6-3.1-5.4-7.9-4.6-12.5c0.6-4,3.7-7.9,8.1-10.1
		c4-2,8.8-2.3,12.9-0.7c3.7,1.4,7.2,4.7,9.5,9c2.2,4.2,3,9,2.3,13.2c-0.4,2.3-1,4.2-1.9,5.8c-0.9,1.6-2.1,3-4.2,4.9
		c-3.4,3.1-7.6,5.5-12.3,6.8c-4.2,1.2-8.9,1.2-13.5,0.3c-8.7-2-16.6-8.4-20.6-16.7c-4.1-8.1-4.9-18.1-2.1-26.7
		c1.3-4.2,3.5-8.1,6.4-11.7c3.3-4,7-7.4,10.8-9.9c7.8-5.3,17.5-8.3,27.2-8.3h0.1c9.4,0,18.9,2.9,26.7,8c4,2.8,7.6,6,10.6,9.5
		c3.1,3.6,5.8,8,7.7,12.2c7.7,16.8,4.6,42.6-3.2,53.7c-13.2,18.6-28.6,25.2-38.7,25.2l-48.1-1l-0.5,2.5
		c-0.9,4.3-22.6,105.8-23.9,116.7l-0.4,3l2.9,0.4c1.5,0.2,4,0.3,7.7,0.3c17.6,0,30.3-2,38.8-6.2l1.6-0.8l0.1-1.8
		c0.9-13.9,6-40.8,15.1-80c2.4-0.1,5.4-0.2,8.9-0.4c4.1,19.6,8.2,35.9,12.3,48.7c4.3,13.5,9.2,24,14.5,31c5.7,7.6,13.1,11.4,22,11.4
		c8.3,0,17.3-2.2,26.7-6.4c9.3-4.2,17.6-9.7,24.7-16.2l1.8-1.7l-9.2-14.8L501.1,253.1z"/>
	<path class="st2" d="M707.9,252.3l-20.1,7.2c-0.2-1.1-0.5-3.2-0.5-6.9c0-6.8,4.7-31.7,14.1-74.1c9.6-43.4,14.2-72,14.2-87.3
		c0-7.2-1.1-12.3-3.4-15.5l-0.9-1.3h-1.6c-13,0-27,2.6-41.8,7.7l-2.3,0.8l2,14.4c0,18.2-4.6,48.3-13.8,89.6
		c-9.4,42.3-13.9,66.8-13.9,74.8c0,8.5,2.4,15.3,7.2,20.2c4.8,4.9,10.9,7.3,18.1,7.3c6.9,0,15-2.2,24.5-6.7
		c9.2-4.4,17.2-9.2,23.7-14.4l1.4-1.1c-0.1-0.6-0.1-1.3-0.1-1.9L707.9,252.3z"/>
	<path class="st2" d="M767.3,259.5c-0.2-1.1-0.5-3.2-0.5-6.9c0-6.7,4.7-31.7,14.1-74.1c9.6-43.4,14.2-72,14.2-87.3
		c0-7.2-1.1-12.3-3.4-15.5l-0.9-1.3h-1.6c-13,0-27,2.6-41.8,7.7l-2.3,0.8l2,14.4c0,18.2-4.6,48.3-13.8,89.6
		c-9.4,42.3-13.9,66.8-13.9,74.8c0,1.2,0.2,2.3,0.3,3.5l0.7,1.4l-0.6,0.5c0.8,6,3.1,11,6.8,14.8c4.8,4.9,10.9,7.3,18.1,7.3
		c6.9,0,15.1-2.3,24.5-6.7c9.2-4.4,17.2-9.2,23.7-14.4l1.9-1.5l-7.4-14.4L767.3,259.5z"/>
</g>
<path class="st2" d="M311.5,252.5c-2.6,2.1-6.3,4.2-11.1,6.3c-4.6,2.1-9,3.1-13,3.1c-6.9,0-16-2.2-18.3-20.6l3.9-0.5
	c11.2-1.7,23.7-6,37.2-12.6c6.9-3.6,12.9-8.7,17.7-15.2c5-6.7,7.5-14.9,7.5-24.6c0-10-4-18.1-11.8-24.1c-7.6-5.8-17.4-8.7-29-8.7
	c-18.6,0-35.5,7.1-50.1,21.1c-14.6,14.1-22.1,33.4-22.1,57.5c0,16.9,4,30.3,11.9,40c8,9.8,19.1,14.8,32.9,14.8
	c13.3,0,25.8-3.1,37-9.4c4-2.3,8.3-5.2,12.9-8.6c4.8-3.6,7.9-6.4,9.6-8.8l1.3-1.8l-9.9-13.2L311.5,252.5z M265.5,224.9
	c0-10.4,1.9-21.7,5.7-33.7c3.9-12.1,9.3-18.1,16.4-18.1c5.9,0,8.9,5.1,9,15.2c0,10-2.8,18.3-8.4,24.6
	C282.6,219.2,275,223.2,265.5,224.9z"/>
<path class="st2" d="M626.5,195.1c-0.6-27.5-9-41.5-25.1-41.5c-4.1,0-7.9,0.8-11.3,2.5l-9.4-0.5c-20.5,0-36.8,7.9-48.5,23.6
	c-11.4,15.4-17.3,34-17.3,55.3c0,16.9,3.9,30.3,11.6,39.8c7.8,9.8,18.8,14.7,32.6,14.7c17.9,0,32.7-7.7,44.1-22.9
	c10.7-14.3,18-31.2,21.7-50.3l20-4.7l4.3-19.4C649.2,191.7,632.1,194.7,626.5,195.1z M592.8,245.1c-5.6,9.1-11.9,13.7-18.5,13.7
	c-8.2,0-12.4-9.1-12.4-27.2c0-13.8,2-26.1,6-36.7c4.1-11,7.9-16.1,10.6-18.5c-2,5-3,10.4-3,16c0,11,5.2,24.1,29.2,25.3
	C602.2,227.3,598.2,236.5,592.8,245.1z"/>
</svg>
